<mxfile host="app.diagrams.net" modified="2021-04-03T05:22:36.813Z" agent="5.0 (Windows NT 10.0; Win64; x64) AppleWebKit/537.36 (KHTML, like Gecko) Chrome/89.0.4389.90 Safari/537.36 Edg/89.0.774.63" etag="-r5bFL3MIhV7HZmJZk3O" version="14.5.6" type="github">
  <diagram id="10PtV-XpdBiNyYAdnhKb" name="第 1 页">
    <mxGraphModel dx="1038" dy="548" grid="0" gridSize="10" guides="1" tooltips="1" connect="1" arrows="1" fold="1" page="0" pageScale="1" pageWidth="827" pageHeight="1169" math="0" shadow="0">
      <root>
        <mxCell id="0" />
        <mxCell id="1" parent="0" />
        <mxCell id="U3qcOaCJUHuD2Bc7Rrpd-1" value="" style="endArrow=none;dashed=1;html=1;strokeWidth=1;strokeColor=#B3B3B3;" edge="1" parent="1">
          <mxGeometry width="50" height="50" relative="1" as="geometry">
            <mxPoint x="361" y="1447" as="sourcePoint" />
            <mxPoint x="361" y="114" as="targetPoint" />
          </mxGeometry>
        </mxCell>
        <mxCell id="U3qcOaCJUHuD2Bc7Rrpd-3" value="" style="endArrow=none;dashed=1;html=1;strokeWidth=1;strokeColor=#B3B3B3;" edge="1" parent="1">
          <mxGeometry width="50" height="50" relative="1" as="geometry">
            <mxPoint x="770" y="1440" as="sourcePoint" />
            <mxPoint x="770" y="107" as="targetPoint" />
          </mxGeometry>
        </mxCell>
        <mxCell id="U3qcOaCJUHuD2Bc7Rrpd-4" value="程序员" style="text;strokeColor=none;fillColor=none;html=1;fontSize=24;fontStyle=1;verticalAlign=middle;align=center;" vertex="1" parent="1">
          <mxGeometry x="154" y="57" width="100" height="40" as="geometry" />
        </mxCell>
        <mxCell id="U3qcOaCJUHuD2Bc7Rrpd-5" value="框架" style="text;strokeColor=none;fillColor=none;html=1;fontSize=24;fontStyle=1;verticalAlign=middle;align=center;" vertex="1" parent="1">
          <mxGeometry x="519" y="57" width="100" height="40" as="geometry" />
        </mxCell>
        <mxCell id="U3qcOaCJUHuD2Bc7Rrpd-6" value="页面" style="text;strokeColor=none;fillColor=none;html=1;fontSize=24;fontStyle=1;verticalAlign=middle;align=center;" vertex="1" parent="1">
          <mxGeometry x="866" y="57" width="100" height="40" as="geometry" />
        </mxCell>
        <mxCell id="U3qcOaCJUHuD2Bc7Rrpd-7" value="定义模板" style="rounded=0;whiteSpace=wrap;html=1;" vertex="1" parent="1">
          <mxGeometry x="144" y="175" width="120" height="40" as="geometry" />
        </mxCell>
        <mxCell id="U3qcOaCJUHuD2Bc7Rrpd-10" value="定义data对象" style="rounded=0;whiteSpace=wrap;html=1;" vertex="1" parent="1">
          <mxGeometry x="144" y="259" width="120" height="40" as="geometry" />
        </mxCell>
        <mxCell id="U3qcOaCJUHuD2Bc7Rrpd-11" value="创建vue实例" style="rounded=0;whiteSpace=wrap;html=1;" vertex="1" parent="1">
          <mxGeometry x="144" y="343" width="120" height="40" as="geometry" />
        </mxCell>
        <mxCell id="U3qcOaCJUHuD2Bc7Rrpd-12" value="修改data对象的属性" style="rounded=0;whiteSpace=wrap;html=1;" vertex="1" parent="1">
          <mxGeometry x="144" y="427" width="120" height="40" as="geometry" />
        </mxCell>
        <mxCell id="U3qcOaCJUHuD2Bc7Rrpd-13" value="页面更新" style="rounded=0;whiteSpace=wrap;html=1;" vertex="1" parent="1">
          <mxGeometry x="856" y="427" width="120" height="40" as="geometry" />
        </mxCell>
      </root>
    </mxGraphModel>
  </diagram>
</mxfile>
